<svg width="34" height="34" viewBox="0 0 34 34" fill="none" xmlns="http://www.w3.org/2000/svg">
<g clip-path="url(#clip0_1_1395)">
<path fill-rule="evenodd" clip-rule="evenodd" d="M10.3027 24.086C6.39057 20.3885 6.2165 14.215 9.91403 10.3029C13.6116 6.39083 19.785 6.21676 23.6971 9.91429C27.6092 13.6118 27.7833 19.7853 24.0858 23.6974C20.3882 27.6095 14.2148 27.7836 10.3027 24.086ZM11.0042 11.3333C7.87567 14.6433 8.02297 19.8674 11.333 22.9959C14.643 26.1244 19.8671 25.9771 22.9956 22.6671C26.1241 19.357 25.9768 14.1329 22.6668 11.0044C19.3568 7.87593 14.1327 8.02323 11.0042 11.3333Z" fill="white"/>
<path fill-rule="evenodd" clip-rule="evenodd" d="M13.7295 13.9091C14.014 13.6081 14.4887 13.5947 14.7897 13.8792L20.2404 19.031C20.5414 19.3155 20.5548 19.7902 20.2703 20.0912C19.9858 20.3922 19.5111 20.4056 19.2101 20.1211L13.7594 14.9694C13.4584 14.6848 13.445 14.2102 13.7295 13.9091Z" fill="white"/>
<path fill-rule="evenodd" clip-rule="evenodd" d="M13.9089 20.2706C13.6078 19.986 13.5945 19.5114 13.879 19.2103L19.0307 13.7597C19.3152 13.4586 19.7899 13.4452 20.0909 13.7298C20.392 14.0143 20.4053 14.489 20.1208 14.79L14.9691 20.2407C14.6846 20.5417 14.2099 20.5551 13.9089 20.2706Z" fill="white"/>
</g>
<defs>
<clipPath id="clip0_1_1395">
<rect width="24" height="24" fill="white" transform="translate(0.0361328 17.4785) rotate(-46.6151)"/>
</clipPath>
</defs>
</svg>
