<svg width="18" height="22" viewBox="0 0 18 22" fill="none" xmlns="http://www.w3.org/2000/svg">
<path d="M13.3654 5.41531C11.4754 5.41531 10.6766 6.31719 9.36038 6.31719C8.01085 6.31719 6.98147 5.42188 5.34366 5.42188C3.74053 5.42188 2.031 6.40063 0.945378 8.06797C-0.578997 10.4192 -0.320246 14.8475 2.14866 18.62C3.03178 19.9705 4.21116 21.485 5.75803 21.5014H5.78616C7.13053 21.5014 7.52991 20.6211 9.38006 20.6108H9.40819C11.2307 20.6108 11.5963 21.4963 12.9351 21.4963H12.9632C14.5101 21.4798 15.7527 19.8017 16.6358 18.4564C17.2715 17.4889 17.5077 17.0033 17.9952 15.9088C14.4238 14.5531 13.8501 9.49016 17.3821 7.54906C16.304 6.19906 14.789 5.41719 13.3607 5.41719L13.3654 5.41531Z" fill="white"/>
<path d="M12.9491 0.5C11.8241 0.576406 10.5116 1.29266 9.74288 2.22781C9.04538 3.07531 8.47163 4.3325 8.69663 5.55172H8.78663C9.98475 5.55172 11.211 4.83031 11.9273 3.90594C12.6173 3.02609 13.1404 1.77922 12.9491 0.5Z" fill="white"/>
</svg>
