<svg width="34" height="34" viewBox="0 0 34 34" fill="none" xmlns="http://www.w3.org/2000/svg">
<path d="M26.9167 28.3333H7.08333C5.51853 28.3333 4.25 27.0648 4.25 25.5V12.75C4.25 11.1852 5.51853 9.91663 7.08333 9.91663H26.9167C28.4815 9.91663 29.75 11.1852 29.75 12.75V25.5C29.75 27.0648 28.4815 28.3333 26.9167 28.3333Z" stroke="white" stroke-width="2.125"/>
<path d="M9.9165 9.91667V5.1C9.9165 4.63056 10.2971 4.25 10.7665 4.25H23.2332C23.7027 4.25 24.0832 4.63056 24.0832 5.1V9.91667" stroke="white" stroke-width="2.125"/>
<path d="M14.1665 4.25V9.91667" stroke="white" stroke-width="2.125"/>
<path d="M17 4.25V9.91667" stroke="white" stroke-width="2.125"/>
<path d="M23.3748 19.8333C22.9837 19.8333 22.6665 19.5161 22.6665 19.125C22.6665 18.7338 22.9837 18.4166 23.3748 18.4166C23.766 18.4166 24.0832 18.7338 24.0832 19.125C24.0832 19.5161 23.766 19.8333 23.3748 19.8333Z" fill="white" stroke="white" stroke-width="2.125" stroke-linecap="round" stroke-linejoin="round"/>
</svg>
