<svg width="20" height="20" viewBox="0 0 20 20" fill="none" xmlns="http://www.w3.org/2000/svg">
<g clip-path="url(#clip0_1_2103)">
<path d="M15.0003 6.66669H8.33366C7.41318 6.66669 6.66699 7.41288 6.66699 8.33335V15C6.66699 15.9205 7.41318 16.6667 8.33366 16.6667H15.0003C15.9208 16.6667 16.667 15.9205 16.667 15V8.33335C16.667 7.41288 15.9208 6.66669 15.0003 6.66669Z" stroke="black" stroke-width="1.66667" stroke-linecap="round" stroke-linejoin="round"/>
<path d="M13.333 6.66665V4.99998C13.333 4.55795 13.1574 4.13403 12.8449 3.82147C12.5323 3.50891 12.1084 3.33331 11.6663 3.33331H4.99967C4.55765 3.33331 4.13372 3.50891 3.82116 3.82147C3.5086 4.13403 3.33301 4.55795 3.33301 4.99998V11.6666C3.33301 12.1087 3.5086 12.5326 3.82116 12.8452C4.13372 13.1577 4.55765 13.3333 4.99967 13.3333H6.66634" stroke="black" stroke-width="1.66667" stroke-linecap="round" stroke-linejoin="round"/>
</g>
<defs>
<clipPath id="clip0_1_2103">
<rect width="20" height="20" rx="10" fill="white"/>
</clipPath>
</defs>
</svg>
