<svg width="48" height="48" viewBox="0 0 48 48" fill="none" xmlns="http://www.w3.org/2000/svg">
<circle cx="24" cy="24" r="24" fill="#525250"/>
<path d="M26.2694 20.8385V17.7814H33.2243V12.9574H13.9186V17.7814H20.8931V20.8385C15.0501 21.1195 10.6636 22.2925 10.6636 23.6977C10.6636 25.1028 15.0452 26.2685 20.8931 26.5569V36.6471H26.2694V26.5569C32.1124 26.2783 36.4989 25.1053 36.4989 23.6977C36.4989 22.2901 32.1173 21.1195 26.2694 20.8385ZM23.5812 25.6429C17.2544 25.6429 12.1249 24.6654 12.1249 23.4875C12.1249 22.4734 15.8614 21.6229 20.8882 21.3957V24.8487C21.7533 24.8878 22.6526 24.9098 23.5763 24.9098C24.5001 24.9098 25.4043 24.8878 26.2645 24.8487V21.3957C31.2913 21.6229 35.0278 22.4734 35.0278 23.4875C35.0375 24.6776 29.9081 25.6429 23.5812 25.6429Z" fill="white"/>
</svg>
