<svg width="48" height="48" viewBox="0 0 48 48" fill="none" xmlns="http://www.w3.org/2000/svg">
<circle cx="24" cy="24" r="24" fill="#525250"/>
<path d="M36.6573 20.7187H34.3357C33.5993 18.6711 32.2494 16.9004 30.47 15.6479C28.6905 14.3954 26.5681 13.7221 24.3921 13.7198H15.9709V20.7187H13.168V22.9694H15.9709V25.5989H13.168V27.8496H15.9709V34.8485H24.3921C26.5681 34.8462 28.6905 34.1729 30.47 32.9205C32.2494 31.668 33.5993 29.8972 34.3357 27.8496H36.6573V25.5989H34.8734C34.9841 24.7259 34.9841 23.8424 34.8734 22.9694H36.6573V20.7187ZM18.2241 15.9754H24.3921C25.9639 15.9766 27.5034 16.4226 28.8323 17.262C30.1612 18.1014 31.2254 19.2999 31.9018 20.7187H18.2168L18.2241 15.9754ZM24.3921 32.5929H18.2241V27.8496H31.9091C31.2322 29.2696 30.1669 30.4688 28.8365 31.3083C27.5062 32.1478 25.9652 32.5932 24.3921 32.5929ZM32.7009 24.2842C32.7006 24.7245 32.6654 25.1641 32.5958 25.5989H18.2241V22.9694H32.6007C32.6703 23.4042 32.7055 23.8438 32.7057 24.2842H32.7009Z" fill="white"/>
</svg>
