<svg width="55" height="55" viewBox="0 0 55 55" fill="none" xmlns="http://www.w3.org/2000/svg">
<rect width="55" height="55" rx="20" fill="#D9D9D9" fill-opacity="0.32"/>
<path d="M33.6977 30.401C33.7352 27.8322 31.0883 26.026 27.6727 25.6697C25.6664 25.4666 24.5758 24.8947 24.5758 23.5697C24.5758 22.3041 25.8633 21.3635 27.2977 21.4416C29.9039 21.5885 30.282 23.201 30.282 24.1854C30.282 24.1854 33.1195 24.2166 33.1195 24.1854C33.1195 21.7885 31.7383 19.6791 28.9164 19.0572V16.2197H26.1039V18.9572C23.1883 19.4197 21.5727 21.7697 21.5445 23.7697C21.5039 26.4166 23.7164 27.8885 27.3883 28.4197C29.6695 28.7322 30.6852 29.6041 30.6633 30.7604C30.6445 32.0104 29.8289 33.2072 27.4789 33.2072C25.2477 33.2072 24.332 31.8291 24.332 30.376H21.2695C21.2695 32.9822 22.6633 34.8947 26.0883 35.3385V38.0697H28.9008V35.3666C32.8758 34.8635 33.6727 31.876 33.6977 30.401Z" fill="black"/>
<path d="M13.9594 27.3134C13.9595 24.4599 14.8557 21.6784 16.5215 19.3616C18.1874 17.0447 20.5387 15.3096 23.2438 14.4009V11.4041C19.7538 12.356 16.6737 14.4291 14.478 17.304C12.2823 20.1789 11.0928 23.696 11.0928 27.3134C11.0928 30.9309 12.2823 34.448 14.478 37.3229C16.6737 40.1977 19.7538 42.2708 23.2438 43.2228V40.2259C20.5387 39.3173 18.1874 37.5821 16.5215 35.2653C14.8557 32.9485 13.9595 30.167 13.9594 27.3134Z" fill="black"/>
<path d="M31.7598 11.3572V14.3447C34.5025 15.2303 36.8939 16.9628 38.5901 19.293C40.2863 21.6232 41.2001 24.4312 41.2001 27.3134C41.2001 30.1956 40.2863 33.0036 38.5901 35.3339C36.8939 37.6641 34.5025 39.3965 31.7598 40.2822V43.2697C35.2862 42.344 38.4066 40.2761 40.6334 37.3893C42.8602 34.5025 44.068 30.9593 44.068 27.3134C44.068 23.6675 42.8602 20.1244 40.6334 17.2375C38.4066 14.3507 35.2862 12.2829 31.7598 11.3572Z" fill="black"/>
</svg>
