<svg width="48" height="48" viewBox="0 0 48 48" fill="none" xmlns="http://www.w3.org/2000/svg">
<circle cx="24" cy="24" r="24" fill="#525250"/>
<path d="M33.0915 27.7383C32.9204 25.7537 30.8918 24.4266 30.8918 24.4266C30.8918 24.4266 33.4777 23.7251 33.7441 20.6603C33.9127 18.705 32.6809 16.6642 29.5891 15.755L30.6548 11.7296L28.1178 11.0575L27.0546 15.0731L24.9503 14.5159L26.0135 10.5002L23.4716 9.82812L22.4085 13.8437L18.322 12.761L17.6498 15.2955L20.1379 15.953L16.8922 28.2149L14.4041 27.5526L13.6904 30.2411L17.7769 31.3238L16.7138 35.3467L19.2654 36.0335L20.331 32.0106L22.4353 32.5678L21.3599 36.5956L23.9091 37.2629L24.9747 33.2399L25.5638 33.3939C30.5301 34.6404 33.3848 31.16 33.0915 27.7383ZM24.3442 17.0675C24.3442 17.0675 25.3756 17.3339 26.8567 17.7323C28.262 18.1111 29.3325 19.3527 29.0026 20.7531C28.6726 22.1536 27.2086 23.0457 25.6713 22.6644C24.2611 22.3125 23.0464 21.9703 23.0464 21.9703L24.3442 17.0675ZM24.459 30.2191C22.9926 29.8622 21.0984 29.3294 21.0984 29.3294L22.4427 24.2384C22.4427 24.2384 24.1535 24.7272 25.6762 25.0938C27.497 25.5435 28.6091 26.7387 28.2082 28.3396C27.8074 29.9404 26.4363 30.7005 24.459 30.2191Z" fill="white"/>
</svg>
