<svg width="28" height="28" viewBox="0 0 28 28" fill="none" xmlns="http://www.w3.org/2000/svg">
<path d="M23.1516 8.44748L16.7772 3.98761C15.0397 2.77028 12.3727 2.83668 10.7016 4.13148L5.1572 8.45854C4.05054 9.32174 3.17627 11.0924 3.17627 12.4868V20.1228C3.17627 22.9448 5.46707 25.2467 8.28907 25.2467H20.2189C23.0409 25.2467 25.3317 22.9559 25.3317 20.1339V12.6307C25.3317 11.1367 24.3689 9.29961 23.1516 8.44748ZM15.084 20.82C15.084 21.2737 14.7077 21.65 14.254 21.65C13.8003 21.65 13.424 21.2737 13.424 20.82V17.5C13.424 17.0463 13.8003 16.67 14.254 16.67C14.7077 16.67 15.084 17.0463 15.084 17.5V20.82Z" fill="white"/>
</svg>
