<svg width="33" height="32" viewBox="0 0 33 32" fill="none" xmlns="http://www.w3.org/2000/svg">
<path d="M18.7221 20.2742C18.5973 19.9608 18.5151 19.632 18.4777 19.2967C18.151 19.643 17.7561 19.9178 17.3178 20.1037C16.8795 20.2896 16.4074 20.3826 15.9313 20.3768C14.1156 20.3768 12.6738 19.3822 12.6738 17.5861C12.6738 15.0519 15.2642 14.5729 16.9308 14.5729H18.3409V13.9204C18.3409 13.1555 17.6713 12.4762 16.7036 12.4762C15.8971 12.4762 15.1713 12.9454 15.1713 13.6052H12.8498C12.825 13.1141 12.9806 12.6309 13.2872 12.2465C13.6567 11.7533 14.1546 11.3712 14.7266 11.1419C15.3893 10.8673 16.1011 10.7309 16.8184 10.7411C17.9914 10.7411 18.9217 11.036 19.6092 11.6258C19.9589 11.9034 20.2375 12.2603 20.4219 12.667C20.6064 13.0737 20.6913 13.5184 20.6698 13.9644V18.087C20.6565 18.8469 20.8187 19.5995 21.1439 20.2864L18.7221 20.2742ZM16.4005 18.6051C17.1825 18.6051 18.1258 18.0577 18.3555 17.5934V15.9683H17.1752C15.9045 15.9683 15.0369 16.523 15.0369 17.4052C15.0369 18.3387 15.731 18.6051 16.4005 18.6051Z" fill="white"/>
<path d="M16.4639 28.7468C13.9366 28.7468 11.466 27.9973 9.36464 26.5932C7.26325 25.1891 5.62541 23.1934 4.65825 20.8585C3.69108 18.5235 3.43803 15.9542 3.93109 13.4755C4.42414 10.9967 5.64116 8.71981 7.42825 6.93272C9.21534 5.14563 11.4922 3.92861 13.971 3.43556C16.4497 2.9425 19.019 3.19555 21.354 4.16272C23.6889 5.12988 25.6846 6.76772 27.0887 8.86911C28.4929 10.9705 29.2423 13.4411 29.2423 15.9684C29.2391 19.3564 27.8917 22.6048 25.496 25.0005C23.1003 27.3962 19.852 28.7435 16.4639 28.7468ZM16.4639 5.10837C14.316 5.10837 12.2163 5.7453 10.4304 6.93861C8.64449 8.13193 7.25254 9.82803 6.43057 11.8124C5.6086 13.7969 5.39353 15.9804 5.81257 18.0871C6.23161 20.1937 7.26592 22.1288 8.78472 23.6476C10.3035 25.1664 12.2386 26.2007 14.3452 26.6197C16.4519 27.0388 18.6355 26.8237 20.6199 26.0017C22.6043 25.1798 24.3004 23.7878 25.4937 22.0019C26.687 20.216 27.3239 18.1163 27.3239 15.9684C27.3214 13.0889 26.1763 10.3281 24.1403 8.29205C22.1042 6.25596 19.3434 5.11096 16.4639 5.10837Z" fill="white"/>
</svg>
