<svg width="33" height="32" viewBox="0 0 33 32" fill="none" xmlns="http://www.w3.org/2000/svg">
<path d="M27.1384 13.1095L23.9658 16.2821L27.1384 19.4547L30.311 16.2821L27.1384 13.1095Z" fill="white"/>
<path d="M6.02709 13.1112L2.85449 16.2838L6.02709 19.4564L9.19968 16.2838L6.02709 13.1112Z" fill="white"/>
<path d="M16.5823 23.6689L11.3234 18.4099L8.15137 21.5819L16.5823 30.0128L25.0132 21.5819L21.8413 18.4099L16.5823 23.6689Z" fill="white"/>
<path d="M16.5823 8.89888L21.8413 14.1578L25.0132 10.9858L16.5823 2.5549L8.15137 10.9858L11.3234 14.1578L16.5823 8.89888Z" fill="white"/>
<path d="M16.5801 13.151L13.4473 16.2838L16.5801 19.4167L19.713 16.2838L16.5801 13.151Z" fill="white"/>
</svg>
