<svg width="41" height="41" viewBox="0 0 41 41" fill="none" xmlns="http://www.w3.org/2000/svg">
<path d="M32.3309 23.1775C31.1746 20.6775 28.3152 19.69 28.3152 19.69C28.3152 19.69 31.9184 17.84 31.1277 14.2088C30.6184 11.84 28.4715 9.45879 24.4746 9.39941V5.96191H20.9152V9.39941H18.3246V5.96191H14.7684V9.39941H10.3027V12.6432H12.3652C12.476 12.6432 12.5858 12.665 12.6881 12.7074C12.7905 12.7498 12.8835 12.8119 12.9619 12.8903C13.0402 12.9686 13.1024 13.0617 13.1448 13.164C13.1872 13.2664 13.209 13.3761 13.209 13.4869V27.4869C13.209 27.7356 13.1102 27.974 12.9344 28.1498C12.7586 28.3256 12.5201 28.4244 12.2715 28.4244H11.0434L10.3027 31.915H14.7684V35.5869H18.3246V31.915H20.9152V35.5869H24.4715V31.915H25.159C32.0434 31.915 33.8934 26.6182 32.3309 23.1775ZM21.9465 12.6432C23.7559 12.6432 25.434 13.8088 25.4809 15.5963C25.5277 17.3838 24.0465 18.9275 22.0809 18.9525C20.2715 18.9744 18.3309 18.9525 18.3309 18.9525V12.6432C18.3309 12.6432 20.0496 12.6432 21.9465 12.6432ZM23.009 28.415C21.134 28.4494 18.3215 28.415 18.3215 28.415V21.8525C18.3215 21.8525 20.9184 21.89 22.8559 21.8525C25.1871 21.815 26.9027 22.9025 26.9184 24.9557C26.934 27.0088 25.5371 28.3744 23.009 28.4213V28.415Z" fill="black"/>
</svg>
