<svg width="40" height="40" viewBox="0 0 40 40" fill="none" xmlns="http://www.w3.org/2000/svg">
<path d="M35.6439 15.4407H32.6752C31.7335 12.8223 30.0073 10.5579 27.7318 8.95626C25.4563 7.35463 22.7422 6.49366 19.9596 6.49072H9.19082V15.4407H5.60645V18.3188H9.19082V21.6813H5.60645V24.5595H9.19082V33.5095H19.9596C22.7422 33.5065 25.4563 32.6456 27.7318 31.0439C30.0073 29.4423 31.7335 27.1779 32.6752 24.5595H35.6439V21.6813H33.3627C33.5043 20.565 33.5043 19.4352 33.3627 18.3188H35.6439V15.4407ZM12.0721 9.3751H19.9596C21.9696 9.37655 23.9381 9.94696 25.6376 11.0204C27.337 12.0938 28.6978 13.6263 29.5627 15.4407H12.0627L12.0721 9.3751ZM19.9596 30.6251H12.0721V24.5595H29.5721C28.7065 26.3753 27.3442 27.9088 25.643 28.9823C23.9417 30.0558 21.9712 30.6254 19.9596 30.6251ZM30.5846 20.0001C30.5842 20.5632 30.5393 21.1254 30.4502 21.6813H12.0721V18.3188H30.4564C30.5455 18.8748 30.5904 19.437 30.5908 20.0001H30.5846Z" fill="black"/>
</svg>
