<svg width="32" height="32" viewBox="0 0 32 32" fill="none" xmlns="http://www.w3.org/2000/svg">
<path d="M24.7859 7.88411L24.175 8.94225L26.1642 10.0908V16.2662L21.4404 19.0032L22.0538 20.0613L27.3861 16.9773V9.38457L24.7859 7.88411Z" fill="white"/>
<path d="M25.394 19.5016V21.9649L19.7538 25.22L16.8849 22.8716L16.88 20.1614L20.3526 16.552H12.1807L15.6581 20.1663L15.663 23.4507L19.6341 26.6985L26.6159 22.6687V19.5016H25.394Z" fill="white"/>
<path d="M16.2617 28.6462L9.70508 24.7705V19.1034H10.927V24.074L16.2714 27.2313L17.5886 26.4689L18.1996 27.527L16.2617 28.6462Z" fill="white"/>
<path d="M10.3331 14.0619L14.3213 15.687V12.7936H10.1229L5.14746 15.3913V22.224L7.83559 23.7758L8.44652 22.7176L6.36934 21.5178V16.1317L10.3331 14.0619Z" fill="white"/>
<path d="M16.2661 2.96486L13.1797 4.74635L14.4016 5.4526L16.2661 4.37735L21.1317 7.19988V12.7936H18.2114V15.687L22.3535 13.9642V6.49608L16.2661 2.96486Z" fill="white"/>
<path d="M6.36934 13.1016H5.14746V9.38461L12.0022 5.42818L16.5378 8.10408L15.9171 9.15734L11.9948 6.84066L6.36934 10.0909V13.1016Z" fill="white"/>
</svg>
