<svg width="33" height="32" viewBox="0 0 33 32" fill="none" xmlns="http://www.w3.org/2000/svg">
<path d="M21.6826 11.3029L11.1745 17.3756C10.981 17.4862 10.762 17.5443 10.5391 17.5443C10.3162 17.5443 10.0972 17.4862 9.90373 17.3756L6.53869 15.4377C6.3479 15.3247 6.19001 15.1637 6.08069 14.9708C5.97137 14.7779 5.91443 14.5597 5.91553 14.338V10.4622C5.91568 10.2393 5.97446 10.0203 6.08598 9.8273C6.19751 9.63427 6.35785 9.47398 6.55091 9.36252L9.90618 7.42463C10.0997 7.31404 10.3187 7.25588 10.5416 7.25588C10.7644 7.25588 10.9834 7.31404 11.1769 7.42463L14.5322 9.36252C14.7253 9.47398 14.8856 9.63427 14.9971 9.8273C15.1086 10.0203 15.1674 10.2393 15.1676 10.4622V12.3219C15.1676 12.3774 15.1822 12.4319 15.2099 12.48C15.2376 12.5281 15.2774 12.5681 15.3254 12.596C15.3733 12.624 15.4277 12.6389 15.4832 12.6392C15.5387 12.6396 15.5934 12.6254 15.6417 12.598L17.3889 11.5888C17.4852 11.5329 17.565 11.4527 17.6203 11.3562C17.6757 11.2596 17.7046 11.1502 17.7042 11.0389V8.99596C17.704 8.77332 17.6455 8.55461 17.5345 8.36165C17.4234 8.16869 17.2637 8.00823 17.0713 7.89627L11.1647 4.49457C10.9716 4.3828 10.7524 4.32394 10.5293 4.32394C10.3062 4.32394 10.0871 4.3828 9.89396 4.49457L3.99963 7.89627C3.80657 8.00773 3.64623 8.16802 3.53471 8.36105C3.42318 8.55407 3.3644 8.77303 3.36426 8.99596V15.8042C3.3644 16.0272 3.42318 16.2461 3.53471 16.4392C3.64623 16.6322 3.80657 16.7925 3.99963 16.9039L9.89396 20.3056C10.0871 20.4174 10.3062 20.4763 10.5293 20.4763C10.7524 20.4763 10.9716 20.4174 11.1647 20.3056L21.6728 14.2329C21.8663 14.1223 22.0853 14.0642 22.3082 14.0642C22.5311 14.0642 22.7501 14.1223 22.9436 14.2329L26.2989 16.1708C26.4919 16.2823 26.6523 16.4426 26.7638 16.6356C26.8753 16.8286 26.9341 17.0476 26.9342 17.2705V21.1463C26.9341 21.3692 26.8753 21.5882 26.7638 21.7812C26.6523 21.9742 26.4919 22.1345 26.2989 22.246L22.9534 24.1839C22.7599 24.2944 22.5409 24.3526 22.318 24.3526C22.0951 24.3526 21.8761 24.2944 21.6826 24.1839L18.3273 22.246C18.1343 22.1345 17.9739 21.9742 17.8624 21.7812C17.7509 21.5882 17.6921 21.3692 17.692 21.1463V19.2841C17.6922 19.2286 17.6778 19.1739 17.6501 19.1257C17.6224 19.0775 17.5825 19.0375 17.5343 19.0097C17.4862 18.9819 17.4316 18.9674 17.376 18.9675C17.3204 18.9676 17.2659 18.9824 17.2179 19.0104L15.4706 20.0173C15.3745 20.0733 15.2948 20.1536 15.2395 20.2501C15.1842 20.3466 15.1552 20.4559 15.1554 20.5671V22.6125C15.1555 22.8352 15.214 23.0539 15.3251 23.2468C15.4361 23.4398 15.5958 23.6003 15.7883 23.7122L21.6826 27.1139C21.8757 27.2257 22.0949 27.2845 22.318 27.2845C22.5411 27.2845 22.7603 27.2257 22.9534 27.1139L28.8477 23.7122C29.0407 23.6008 29.2011 23.4405 29.3126 23.2474C29.4241 23.0544 29.4829 22.8355 29.4831 22.6125V15.8042C29.4829 15.5813 29.4241 15.3624 29.3126 15.1693C29.2011 14.9763 29.0407 14.816 28.8477 14.7046L22.9534 11.3029C22.7603 11.1911 22.5411 11.1322 22.318 11.1322C22.0949 11.1322 21.8757 11.1911 21.6826 11.3029Z" fill="white"/>
</svg>
