<svg width="40" height="40" viewBox="0 0 40 40" fill="none" xmlns="http://www.w3.org/2000/svg">
<path d="M23.4377 15.5562V11.6468H32.3314V5.47803H7.64394V11.6468H16.5627V15.5562C9.09082 15.9155 3.48145 17.4155 3.48145 19.2124C3.48145 21.0093 9.08457 22.4999 16.5627 22.8687V35.7718H23.4377V22.8687C30.9096 22.5124 36.5189 21.0124 36.5189 19.2124C36.5189 17.4124 30.9158 15.9155 23.4377 15.5562ZM20.0002 21.6999C11.9096 21.6999 5.3502 20.4499 5.3502 18.9437C5.3502 17.6468 10.1283 16.5593 16.5564 16.2687V20.6843C17.6627 20.7343 18.8127 20.7624 19.9939 20.7624C21.1752 20.7624 22.3314 20.7343 23.4314 20.6843V16.2687C29.8596 16.5593 34.6377 17.6468 34.6377 18.9437C34.6502 20.4655 28.0908 21.6999 20.0002 21.6999Z" fill="black"/>
</svg>
