<svg width="15" height="15" viewBox="0 0 15 15" fill="none" xmlns="http://www.w3.org/2000/svg">
<path d="M1.16467 6.90278H2.56944C3.36719 6.90278 4.01389 7.54948 4.01389 8.34722V9.06944C4.01389 9.86719 4.66059 10.5139 5.45833 10.5139C6.25608 10.5139 6.90278 11.1606 6.90278 11.9583V14.0853M4.73611 1.80065V2.93056C4.73611 3.92774 5.54449 4.73611 6.54167 4.73611H6.90278C7.70052 4.73611 8.34722 5.38281 8.34722 6.18056C8.34722 6.9783 8.99392 7.625 9.79167 7.625C10.5894 7.625 11.2361 6.9783 11.2361 6.18056C11.2361 5.38281 11.8828 4.73611 12.6806 4.73611L13.4493 4.73611M9.79167 13.7551V11.9583C9.79167 11.1606 10.4384 10.5139 11.2361 10.5139H13.4493M14.125 7.625C14.125 11.2149 11.2149 14.125 7.625 14.125C4.03515 14.125 1.125 11.2149 1.125 7.625C1.125 4.03515 4.03515 1.125 7.625 1.125C11.2149 1.125 14.125 4.03515 14.125 7.625Z" stroke="black" stroke-width="1.44444" stroke-linecap="round" stroke-linejoin="round"/>
</svg>
