<svg width="13" height="13" viewBox="0 0 13 13" fill="none" xmlns="http://www.w3.org/2000/svg">
<path d="M1.03433 6H2.25C2.94036 6 3.5 6.55964 3.5 7.25V7.875C3.5 8.56536 4.05964 9.125 4.75 9.125C5.44036 9.125 6 9.68464 6 10.375V12.2157M4.125 1.5847V2.5625C4.125 3.42544 4.82456 4.125 5.6875 4.125H6C6.69036 4.125 7.25 4.68464 7.25 5.375C7.25 6.06536 7.80964 6.625 8.5 6.625C9.19036 6.625 9.75 6.06536 9.75 5.375C9.75 4.68464 10.3096 4.125 11 4.125L11.6653 4.125M8.5 11.9299V10.375C8.5 9.68464 9.05964 9.125 9.75 9.125H11.6653M12.25 6.625C12.25 9.7316 9.7316 12.25 6.625 12.25C3.5184 12.25 1 9.7316 1 6.625C1 3.5184 3.5184 1 6.625 1C9.7316 1 12.25 3.5184 12.25 6.625Z" stroke="white" stroke-width="1.25" stroke-linecap="round" stroke-linejoin="round"/>
</svg>
