<svg width="21" height="20" viewBox="0 0 21 20" fill="none" xmlns="http://www.w3.org/2000/svg">
<path d="M10.4796 20C5.04931 20 0.647461 15.523 0.647461 10C0.647461 4.477 5.04931 0 10.4796 0C15.9099 0 20.3117 4.477 20.3117 10C20.3117 15.523 15.9099 20 10.4796 20ZM10.4796 8C10.2188 8 9.96875 8.10536 9.78436 8.29289C9.59997 8.48043 9.49638 8.73478 9.49638 9V14C9.49638 14.2652 9.59997 14.5196 9.78436 14.7071C9.96875 14.8946 10.2188 15 10.4796 15C10.7404 15 10.9904 14.8946 11.1748 14.7071C11.3592 14.5196 11.4628 14.2652 11.4628 14V9C11.4628 8.73478 11.3592 8.48043 11.1748 8.29289C10.9904 8.10536 10.7404 8 10.4796 8ZM10.4796 7C10.7404 7 10.9904 6.89464 11.1748 6.70711C11.3592 6.51957 11.4628 6.26522 11.4628 6C11.4628 5.73478 11.3592 5.48043 11.1748 5.29289C10.9904 5.10536 10.7404 5 10.4796 5C10.2188 5 9.96875 5.10536 9.78436 5.29289C9.59997 5.48043 9.49638 5.73478 9.49638 6C9.49638 6.26522 9.59997 6.51957 9.78436 6.70711C9.96875 6.89464 10.2188 7 10.4796 7Z" fill="white"/>
</svg>
