<svg width="25" height="24" viewBox="0 0 25 24" fill="none" xmlns="http://www.w3.org/2000/svg">
<path d="M12.4796 22C7.04931 22 2.64746 17.523 2.64746 12C2.64746 6.477 7.04931 2 12.4796 2C17.9099 2 22.3117 6.477 22.3117 12C22.3117 17.523 17.9099 22 12.4796 22ZM12.4796 10C12.2188 10 11.9687 10.1054 11.7844 10.2929C11.6 10.4804 11.4964 10.7348 11.4964 11V16C11.4964 16.2652 11.6 16.5196 11.7844 16.7071C11.9687 16.8946 12.2188 17 12.4796 17C12.7404 17 12.9904 16.8946 13.1748 16.7071C13.3592 16.5196 13.4628 16.2652 13.4628 16V11C13.4628 10.7348 13.3592 10.4804 13.1748 10.2929C12.9904 10.1054 12.7404 10 12.4796 10ZM12.4796 9C12.7404 9 12.9904 8.89464 13.1748 8.70711C13.3592 8.51957 13.4628 8.26522 13.4628 8C13.4628 7.73478 13.3592 7.48043 13.1748 7.29289C12.9904 7.10536 12.7404 7 12.4796 7C12.2188 7 11.9687 7.10536 11.7844 7.29289C11.6 7.48043 11.4964 7.73478 11.4964 8C11.4964 8.26522 11.6 8.51957 11.7844 8.70711C11.9687 8.89464 12.2188 9 12.4796 9Z" fill="black"/>
</svg>
