<svg width="27" height="28" viewBox="0 0 27 28" fill="none" xmlns="http://www.w3.org/2000/svg">
<path d="M24.2575 8.59124C23.5492 6.18978 21.5462 4.18671 19.1447 3.47844C17.3187 2.94724 16.0571 2.99151 15.1828 3.64444C14.1315 4.43018 14.0098 5.84671 14.0098 6.85378V9.60938C14.0098 12.3318 15.2492 13.7151 17.6839 13.7151H20.86C21.856 13.7151 23.2836 13.5934 24.0694 12.542C24.7444 11.6788 24.7998 10.4172 24.2575 8.59124Z" fill="white"/>
<path d="M21.2031 15.6849C20.9154 15.3529 20.4948 15.1648 20.0632 15.1648H16.1014C14.1536 15.1648 12.5711 13.5823 12.5711 11.6345V7.67265C12.5711 7.24105 12.383 6.82052 12.051 6.53279C11.73 6.24505 11.2874 6.11225 10.8668 6.16759C8.26617 6.49959 5.87577 7.92719 4.31537 10.0741C2.74391 12.2321 2.16844 14.866 2.66644 17.4999C3.38577 21.3068 6.42911 24.3501 10.2471 25.0695C10.8558 25.1912 11.4644 25.2465 12.0731 25.2465C14.0762 25.2465 16.0128 24.6268 17.6618 23.4205C19.8087 21.8601 21.2363 19.4697 21.5683 16.8691C21.6236 16.4375 21.4908 16.0059 21.2031 15.6849Z" fill="white"/>
</svg>
