<svg width="20" height="20" viewBox="0 0 20 20" fill="none" xmlns="http://www.w3.org/2000/svg">
<path d="M16.25 13.125H13.125V16.25H16.25V13.125Z" fill="white"/>
<path d="M13.125 10.625H10.625V13.125H13.125V10.625Z" fill="white"/>
<path d="M18.75 16.25H16.25V18.75H18.75V16.25Z" fill="white"/>
<path d="M18.75 10.625H16.875V12.5H18.75V10.625Z" fill="white"/>
<path d="M12.5 16.875H10.625V18.75H12.5V16.875Z" fill="white"/>
<path d="M16.25 3.75H13.125V6.875H16.25V3.75Z" fill="white"/>
<path d="M18.75 9.375H10.625V1.25H18.75V9.375ZM12.3438 7.65625H17.0312V2.96875H12.3438V7.65625Z" fill="white"/>
<path d="M6.875 3.75H3.75V6.875H6.875V3.75Z" fill="white"/>
<path d="M9.375 9.375H1.25V1.25H9.375V9.375ZM2.96875 7.65625H7.65625V2.96875H2.96875V7.65625Z" fill="white"/>
<path d="M6.875 13.125H3.75V16.25H6.875V13.125Z" fill="white"/>
<path d="M9.375 18.75H1.25V10.625H9.375V18.75ZM2.96875 17.0312H7.65625V12.3438H2.96875V17.0312Z" fill="white"/>
</svg>
