<svg width="24" height="25" viewBox="0 0 24 25" fill="none" xmlns="http://www.w3.org/2000/svg">
<path d="M11.8963 8.02991C11.0755 8.02991 10.2732 8.2733 9.59072 8.72931C8.90826 9.18532 8.37634 9.83346 8.06224 10.5918C7.74813 11.3501 7.66595 12.1845 7.82608 12.9895C7.98621 13.7946 8.38146 14.534 8.96184 15.1144C9.54223 15.6948 10.2817 16.09 11.0867 16.2502C11.8917 16.4103 12.7262 16.3281 13.4845 16.014C14.2428 15.6999 14.8909 15.168 15.3469 14.4855C15.8029 13.8031 16.0463 13.0007 16.0463 12.1799C16.0431 11.0803 15.6048 10.0266 14.8272 9.24904C14.0496 8.47148 12.996 8.03319 11.8963 8.02991ZM20.8562 12.1799C20.854 12.5677 20.8256 12.9549 20.7711 13.3388L23.2969 15.3163C23.4069 15.4071 23.481 15.5341 23.506 15.6746C23.531 15.815 23.5053 15.9598 23.4333 16.083L21.044 20.2081C20.9713 20.3302 20.858 20.4228 20.7238 20.4696C20.5896 20.5163 20.4433 20.5143 20.3105 20.4638L17.3406 19.2707C16.7222 19.7469 16.0455 20.1421 15.3268 20.4467L14.8828 23.5997C14.8579 23.7409 14.7848 23.8691 14.6759 23.9624C14.567 24.0557 14.4291 24.1083 14.2857 24.1112H9.50698C9.36621 24.1084 9.23053 24.058 9.12209 23.9683C9.01365 23.8785 8.93885 23.7546 8.90989 23.6168L8.46584 20.4638C7.74523 20.1628 7.068 19.7669 6.45206 19.2868L3.48221 20.4799C3.34946 20.5304 3.20314 20.5326 3.06898 20.4859C2.93482 20.4392 2.82141 20.3467 2.7487 20.2247L0.359337 16.1001C0.287416 15.9769 0.26165 15.8321 0.286643 15.6917C0.311637 15.5512 0.38576 15.4242 0.495768 15.3334L3.02156 13.3559C2.96769 12.9662 2.93927 12.5733 2.93649 12.1799C2.93865 11.7921 2.96707 11.405 3.02156 11.021L0.495768 9.04354C0.38576 8.95271 0.311637 8.82572 0.286643 8.68526C0.26165 8.54481 0.287416 8.40004 0.359337 8.27683L2.7487 4.15173C2.82133 4.02962 2.93471 3.93702 3.06887 3.89025C3.20304 3.84347 3.3494 3.8455 3.48221 3.89599L6.45206 5.08911C7.07047 4.61291 7.74721 4.2177 8.46584 3.91311L8.90989 0.760145C8.93475 0.618915 9.00787 0.490698 9.11678 0.397406C9.22568 0.304113 9.3636 0.251536 9.50698 0.248657H14.2857C14.4265 0.251397 14.5621 0.301773 14.6706 0.391561C14.779 0.481349 14.8538 0.605245 14.8828 0.743026L15.3268 3.89599C16.0483 4.19685 16.7265 4.59269 17.3432 5.07303L20.3105 3.87991C20.4432 3.82938 20.5895 3.82726 20.7237 3.87395C20.8579 3.92063 20.9713 4.01311 21.044 4.13513L23.4333 8.26023C23.5053 8.38344 23.531 8.52821 23.506 8.66866C23.481 8.80912 23.4069 8.93611 23.2969 9.02695L20.7711 11.0044C20.825 11.394 20.8534 11.7866 20.8562 12.1799Z" fill="white"/>
</svg>
