<svg width="25" height="25" viewBox="0 0 25 25" fill="none" xmlns="http://www.w3.org/2000/svg">
<path d="M14.8003 24.4312H10.365C10.3598 24.4312 10.3546 24.4312 10.3494 24.4312C9.68544 24.4209 9.13037 23.9592 8.9955 23.3107C8.99031 23.2952 8.99031 23.2744 8.98512 23.2589L8.63756 20.7792H8.63237C8.207 20.5717 7.792 20.3331 7.40294 20.0582L5.07375 20.9971C5.06856 20.9971 5.06337 21.0023 5.05819 21.0023C4.42531 21.2409 3.71462 20.9971 3.36706 20.4109C3.36706 20.4057 3.36187 20.4057 3.36187 20.4005L1.14162 16.5618C0.799249 15.9756 0.934124 15.2286 1.45806 14.7929C1.46325 14.7877 1.46844 14.7825 1.47362 14.7773L3.45525 13.221L3.45006 13.2159C3.42931 12.9565 3.41894 12.723 3.41894 12.4948C3.41894 12.2613 3.42931 12.0279 3.45006 11.7789L1.47881 10.233C1.46844 10.2279 1.46325 10.2227 1.45806 10.2123C0.944499 9.77654 0.814812 9.03473 1.152 8.45373L3.37225 4.61498C3.37225 4.60979 3.37744 4.60979 3.37744 4.6046C3.725 4.0236 4.43569 3.7746 5.06856 4.01323C5.07375 4.01323 5.07894 4.01841 5.08412 4.01841L7.41331 4.95735C7.80756 4.6876 8.21738 4.44898 8.64275 4.24148L8.99031 1.75666C8.99031 1.74629 8.9955 1.73591 8.9955 1.73073C9.10444 1.07191 9.67506 0.584288 10.3442 0.568726C10.3494 0.568726 10.3546 0.568726 10.3598 0.568726H14.7951C14.8003 0.568726 14.8055 0.568726 14.8107 0.568726C15.4747 0.579101 16.0297 1.04079 16.1646 1.68923C16.1698 1.70479 16.1698 1.72554 16.175 1.7411L16.5226 4.22073H16.5277C16.9531 4.42823 17.3681 4.66685 17.7572 4.94179L20.0864 4.00285C20.0916 4.00285 20.0967 3.99766 20.1019 3.99766C20.7348 3.75385 21.4455 4.00285 21.7931 4.58904C21.7931 4.59423 21.7983 4.59423 21.7983 4.59941L24.0185 8.43816C24.3609 9.02435 24.226 9.77135 23.7021 10.2071C23.6969 10.2123 23.6917 10.2175 23.6865 10.2227L21.7049 11.7789C21.7049 11.7841 21.7049 11.7893 21.7049 11.7893C21.7256 12.0539 21.736 12.2873 21.736 12.5V12.5052C21.736 12.7386 21.7256 12.9772 21.7049 13.2107L23.6865 14.7617C23.6917 14.7669 23.6969 14.7721 23.7021 14.7773C24.226 15.213 24.3609 15.9549 24.0185 16.5462L21.7983 20.385C21.7983 20.3902 21.7931 20.3902 21.7931 20.3954C21.4455 20.9764 20.7348 21.2254 20.1019 20.9867C20.0967 20.9867 20.0916 20.9815 20.0864 20.9815L17.7572 20.0426C17.3629 20.3124 16.9531 20.551 16.5277 20.7585L16.1802 23.2433C16.1802 23.2537 16.175 23.264 16.175 23.2692C16.0609 23.928 15.4903 24.4157 14.8211 24.4312C14.8107 24.4312 14.8055 24.4312 14.8003 24.4312ZM10.5932 22.7712H14.5669L14.8833 20.525C14.9611 19.9804 15.3035 19.5083 15.8015 19.2645C16.1542 19.0933 16.4914 18.8962 16.8131 18.6783C17.2696 18.3619 17.8557 18.2944 18.3797 18.5019L20.4858 19.3475L22.4674 15.9185L20.3094 14.2326C20.076 14.051 19.9567 13.7554 19.9982 13.4649C20.0449 13.1484 20.0656 12.8216 20.0708 12.5C20.0708 12.3288 20.0604 12.142 20.0449 11.9242C19.993 11.3639 20.2316 10.8192 20.6726 10.4717L22.4622 9.06585L20.4806 5.63691L18.3745 6.48248C17.8558 6.68998 17.2696 6.62773 16.8079 6.3061C16.4914 6.08304 16.1543 5.88591 15.8067 5.71991C15.3087 5.48129 14.9611 5.00923 14.8781 4.45935L14.5669 2.22873H10.5932L10.2768 4.47491C10.199 5.0196 9.85662 5.49166 9.35862 5.73548C9.00587 5.90666 8.66869 6.10379 8.34706 6.32166C7.89056 6.6381 7.30437 6.70554 6.78044 6.49804L4.68469 5.65248L2.70306 9.08141L4.48237 10.482C4.92331 10.8296 5.15675 11.3691 5.11006 11.9294C5.08931 12.1317 5.08412 12.3184 5.08412 12.5C5.08412 12.6764 5.0945 12.8631 5.11006 13.0758C5.16194 13.636 4.9285 14.1807 4.48756 14.5283L2.69787 15.9341L4.6795 19.363L6.78044 18.5175C7.29919 18.31 7.88537 18.3722 8.34706 18.6939C8.6635 18.9169 9.00069 19.114 9.34825 19.28C9.84625 19.5187 10.1938 19.9907 10.2768 20.5406L10.5932 22.7712ZM12.5852 16.65C12.4504 16.65 12.3103 16.6448 12.1754 16.6292C11.0705 16.5203 10.0797 15.986 9.37419 15.13C8.66869 14.2741 8.34187 13.1951 8.45081 12.0902C8.67387 9.81285 10.7126 8.14248 12.9899 8.36554C14.9507 8.56266 16.5122 10.1293 16.7093 12.085C16.7352 12.3547 16.7352 12.6297 16.7093 12.9046C16.4966 15.047 14.6914 16.65 12.5852 16.65ZM12.5749 10.01C11.9991 10.01 11.4492 10.2071 10.9979 10.5754C10.4843 10.9956 10.1627 11.5922 10.1004 12.2562C10.033 12.9202 10.2301 13.5634 10.6555 14.0822C11.0757 14.5957 11.6723 14.9174 12.3363 14.9796C13.7006 15.1145 14.9248 14.1133 15.0597 12.7438C15.0752 12.583 15.0752 12.417 15.0597 12.2562C14.9404 11.0786 14.0014 10.1397 12.8239 10.0204C12.7409 10.0152 12.6579 10.01 12.5749 10.01Z" fill="#9DB2CE"/>
</svg>
