<svg width="15" height="15" viewBox="0 0 15 15" fill="none" xmlns="http://www.w3.org/2000/svg">
<g clip-path="url(#clip0_1_1965)">
<path fill-rule="evenodd" clip-rule="evenodd" d="M7.50001 0C6.85313 0 5.77219 0.248438 4.75501 0.525C3.71438 0.80625 2.66532 1.13906 2.04844 1.34063C1.79053 1.4258 1.56187 1.582 1.38874 1.79128C1.21561 2.00057 1.10502 2.25444 1.06969 2.52375C0.510942 6.72094 1.8075 9.83156 3.38063 11.8894C4.04798 12.7694 4.84337 13.5446 5.74032 14.1891C6.10219 14.445 6.43782 14.6409 6.72282 14.775C6.98532 14.8987 7.26751 15 7.50001 15C7.73251 15 8.01376 14.8987 8.27719 14.775C8.62112 14.6087 8.94987 14.4126 9.25969 14.1891C10.1566 13.5446 10.952 12.7694 11.6194 11.8894C13.1925 9.83156 14.4891 6.72094 13.9303 2.52375C13.8952 2.25428 13.7846 2.0002 13.6115 1.79074C13.4384 1.58127 13.2096 1.42493 12.9516 1.33969C12.056 1.04626 11.1536 0.774306 10.245 0.524063C9.22782 0.249375 8.14688 0 7.50001 0ZM9.51188 4.82438C9.5999 4.73636 9.71928 4.68691 9.84376 4.68691C9.96823 4.68691 10.0876 4.73636 10.1756 4.82438C10.2636 4.91239 10.3131 5.03177 10.3131 5.15625C10.3131 5.28073 10.2636 5.40011 10.1756 5.48812L7.36313 8.30062C7.31959 8.34428 7.26786 8.37891 7.21091 8.40254C7.15396 8.42617 7.09291 8.43834 7.03126 8.43834C6.9696 8.43834 6.90855 8.42617 6.8516 8.40254C6.79465 8.37891 6.74292 8.34428 6.69938 8.30062L5.29313 6.89437C5.24955 6.85079 5.21498 6.79905 5.19139 6.74211C5.1678 6.68517 5.15566 6.62414 5.15566 6.5625C5.15566 6.50086 5.1678 6.43983 5.19139 6.38289C5.21498 6.32595 5.24955 6.27421 5.29313 6.23063C5.33671 6.18704 5.38845 6.15247 5.4454 6.12888C5.50234 6.1053 5.56337 6.09316 5.62501 6.09316C5.68664 6.09316 5.74767 6.1053 5.80462 6.12888C5.86156 6.15247 5.9133 6.18704 5.95688 6.23063L7.03126 7.30594L9.51188 4.82438Z" fill="white"/>
</g>
<defs>
<clipPath id="clip0_1_1965">
<rect width="15" height="15" fill="white"/>
</clipPath>
</defs>
</svg>
