<svg width="34" height="34" viewBox="0 0 34 34" fill="none" xmlns="http://www.w3.org/2000/svg">
<g clip-path="url(#clip0_1_1623)">
<path d="M9.91667 26.9167C13.0463 26.9167 15.5833 24.3797 15.5833 21.25C15.5833 18.1204 13.0463 15.5834 9.91667 15.5834C6.78705 15.5834 4.25 18.1204 4.25 21.25C4.25 24.3797 6.78705 26.9167 9.91667 26.9167Z" stroke="white" stroke-width="2.83333" stroke-linecap="round" stroke-linejoin="round"/>
<path d="M9.9165 21.25V21.2642" stroke="white" stroke-width="2.83333" stroke-linecap="round" stroke-linejoin="round"/>
<path d="M26.9168 26.9167C28.4816 26.9167 29.7502 25.6481 29.7502 24.0833C29.7502 22.5185 28.4816 21.25 26.9168 21.25C25.352 21.25 24.0835 22.5185 24.0835 24.0833C24.0835 25.6481 25.352 26.9167 26.9168 26.9167Z" stroke="white" stroke-width="2.83333" stroke-linecap="round" stroke-linejoin="round"/>
<path d="M14.875 24.0834H24.0833" stroke="white" stroke-width="2.83333" stroke-linecap="round" stroke-linejoin="round"/>
<path d="M28.3335 21.5334V15.5834C28.3335 15.2077 28.1842 14.8473 27.9186 14.5816C27.6529 14.316 27.2926 14.1667 26.9168 14.1667H18.4168L15.5835 7.08337H7.0835V16.2917" stroke="white" stroke-width="2.83333" stroke-linecap="round" stroke-linejoin="round"/>
<path d="M25.4998 7.08337H24.0832C23.7074 7.08337 23.3471 7.23263 23.0814 7.49831C22.8158 7.76398 22.6665 8.12432 22.6665 8.50004V14.1667" stroke="white" stroke-width="2.83333" stroke-linecap="round" stroke-linejoin="round"/>
</g>
<defs>
<clipPath id="clip0_1_1623">
<rect width="34" height="34" fill="white"/>
</clipPath>
</defs>
</svg>
