<svg width="34" height="34" viewBox="0 0 34 34" fill="none" xmlns="http://www.w3.org/2000/svg">
<g clip-path="url(#clip0_1_1629)">
<path d="M0.0762016 26.1672C0.181078 25.9058 0.385498 25.6967 0.644516 25.5859C0.903533 25.4751 1.19594 25.4717 1.45745 25.5765L5.19108 27.0704C5.9509 27.3743 6.7985 27.3743 7.55833 27.0704L9.71308 26.2076C10.9797 25.701 12.3926 25.701 13.6592 26.2076L15.8161 27.0704C16.5759 27.3743 17.4235 27.3743 18.1833 27.0704L20.3381 26.2076C21.6047 25.701 23.0176 25.701 24.2842 26.2076L26.4411 27.0704C27.2009 27.3743 28.0485 27.3743 28.8083 27.0704L32.542 25.5765C32.6721 25.5212 32.8119 25.4924 32.9533 25.4918C33.0947 25.4912 33.2348 25.5188 33.3653 25.5731C33.4959 25.6273 33.6143 25.7071 33.7137 25.8077C33.813 25.9083 33.8913 26.0277 33.9439 26.1589C33.9965 26.2902 34.0224 26.4306 34.0201 26.572C34.0177 26.7133 33.9872 26.8528 33.9302 26.9822C33.8733 27.1116 33.7911 27.2284 33.6884 27.3256C33.5858 27.4229 33.4648 27.4986 33.3325 27.5485L29.5967 29.0424C28.3301 29.549 26.9172 29.549 25.6506 29.0424L23.4958 28.1796C22.736 27.8757 21.8884 27.8757 21.1286 28.1796L18.9717 29.0424C17.7051 29.549 16.2922 29.549 15.0256 29.0424L12.8708 28.1796C12.111 27.8757 11.2634 27.8757 10.5036 28.1796L8.3467 29.0424C7.08011 29.549 5.66716 29.549 4.40058 29.0424L0.666952 27.5485C0.405488 27.4436 0.196378 27.2392 0.0855978 26.9802C-0.025182 26.7212 -0.0285618 26.4288 0.0762016 26.1672ZM0.0762016 30.4172C0.181078 30.1558 0.385498 29.9467 0.644516 29.8359C0.903533 29.7251 1.19594 29.7217 1.45745 29.8265L5.19108 31.3204C5.9509 31.6243 6.7985 31.6243 7.55833 31.3204L9.71308 30.4576C10.9797 29.951 12.3926 29.951 13.6592 30.4576L15.8161 31.3204C16.5759 31.6243 17.4235 31.6243 18.1833 31.3204L20.3381 30.4576C21.6047 29.951 23.0176 29.951 24.2842 30.4576L26.4411 31.3204C27.2009 31.6243 28.0485 31.6243 28.8083 31.3204L32.542 29.8265C32.6721 29.7712 32.8119 29.7424 32.9533 29.7418C33.0947 29.7412 33.2348 29.7688 33.3653 29.8231C33.4959 29.8773 33.6143 29.9571 33.7137 30.0577C33.813 30.1583 33.8913 30.2777 33.9439 30.4089C33.9965 30.5402 34.0224 30.6806 34.0201 30.822C34.0177 30.9633 33.9872 31.1028 33.9302 31.2322C33.8733 31.3616 33.7911 31.4784 33.6884 31.5756C33.5858 31.6729 33.4648 31.7486 33.3325 31.7985L29.5967 33.2924C28.3301 33.799 26.9172 33.799 25.6506 33.2924L23.4958 32.4296C22.736 32.1257 21.8884 32.1257 21.1286 32.4296L18.9717 33.2924C17.7051 33.799 16.2922 33.799 15.0256 33.2924L12.8708 32.4296C12.111 32.1257 11.2634 32.1257 10.5036 32.4296L8.3467 33.2924C7.08011 33.799 5.66716 33.799 4.40058 33.2924L0.666952 31.7985C0.405488 31.6936 0.196378 31.4892 0.0855978 31.2302C-0.025182 30.9712 -0.0285618 30.6788 0.0762016 30.4172ZM5.65645 17.17C4.68745 19.4289 3.5442 21.6283 1.7422 23.1285C1.52491 23.3009 1.24882 23.3815 0.972905 23.3531C0.696989 23.3247 0.443128 23.1895 0.265556 22.9764C0.087984 22.7633 0.000780914 22.4892 0.0225765 22.2127C0.0443721 21.9362 0.173438 21.6791 0.382202 21.4965C1.7677 20.3405 2.74945 18.5555 3.7057 16.3328C4.0032 15.6357 4.30283 14.8878 4.61308 14.1143C5.25483 12.512 5.93908 10.8014 6.75933 9.20975C7.99608 6.8 9.6217 4.47312 12.1122 2.76038C14.6133 1.04125 17.888 0 22.3122 0C25.4211 0 27.6481 0.85 29.0676 2.24825C30.4913 3.65075 30.9652 5.474 30.808 7.14C30.6507 8.77837 29.8708 10.3615 28.6405 11.3156C28.0802 11.7666 27.4085 12.058 26.6964 12.159C25.9842 12.26 25.258 12.1668 24.5945 11.8894C23.2132 13.2536 22.6671 15.4572 23.0857 17.4441C23.5362 19.5819 25.0407 21.25 27.6247 21.25H32.9372C33.219 21.25 33.4892 21.3619 33.6885 21.5612C33.8878 21.7605 33.9997 22.0307 33.9997 22.3125C33.9997 22.5943 33.8878 22.8645 33.6885 23.0638C33.4892 23.2631 33.219 23.375 32.9372 23.375H27.6247C23.8337 23.375 21.6195 20.7931 21.0075 17.8819C20.5145 15.5444 21.0181 12.8393 22.6182 10.9034L22.3122 10.7525L20.6611 11.577C20.5136 11.6507 20.351 11.6891 20.1861 11.6891C20.0213 11.6891 19.8587 11.6507 19.7112 11.577L17.5862 10.5145C17.3432 10.3834 17.1607 10.1629 17.0775 9.89968C16.9942 9.63643 17.0167 9.3511 17.1402 9.10414C17.2637 8.85719 17.4784 8.668 17.739 8.57665C17.9995 8.4853 18.2854 8.49896 18.5361 8.61475L20.1872 9.43925L21.8362 8.61475C21.9837 8.54106 22.1463 8.50269 22.3111 8.50269C22.476 8.50269 22.6386 8.54106 22.7861 8.61475L24.9111 9.67725L24.9833 9.7155C25.9183 10.2765 26.7046 10.1299 27.3378 9.639C28.0348 9.09712 28.5831 8.08988 28.6915 6.94025C28.7977 5.81612 28.479 4.65375 27.5758 3.76338C26.6727 2.873 25.0471 2.12713 22.3122 2.12713C18.2365 2.12713 15.4017 3.07913 13.3192 4.5135C11.2261 5.95 9.79595 7.94325 8.64845 10.1788C7.87283 11.6875 7.25658 13.2239 6.64033 14.7687C6.32158 15.5677 6.0007 16.3689 5.65645 17.17Z" fill="white"/>
</g>
<defs>
<clipPath id="clip0_1_1629">
<rect width="34" height="34" fill="white"/>
</clipPath>
</defs>
</svg>
