<svg width="24" height="12" viewBox="0 0 24 12" fill="none" xmlns="http://www.w3.org/2000/svg">
<path d="M5.24989 11.25C4.31041 11.2498 3.38819 10.9975 2.57944 10.5194C1.77069 10.0414 1.10504 9.35504 0.651929 8.53205C0.198821 7.70905 -0.0251429 6.77955 0.00340074 5.8405C0.0319443 4.90145 0.31195 3.98726 0.814207 3.1933C1.31646 2.39934 2.02257 1.75471 2.85886 1.32664C3.69516 0.898574 4.631 0.702761 5.56876 0.759628C6.50652 0.816495 7.41184 1.12396 8.19028 1.64995C8.96872 2.17593 9.59176 2.90117 9.99439 3.75H20.9999L23.2499 6L20.9999 8.25L19.4999 6.75L17.9999 8.25L16.4999 6.75L14.9999 8.25L13.4999 6.75L11.9999 8.25H9.99439C9.56853 9.1478 8.89663 9.9063 8.05676 10.4374C7.2169 10.9684 6.24357 11.2502 5.24989 11.25ZM3.74989 7.5C4.14772 7.5 4.52925 7.34197 4.81055 7.06066C5.09186 6.77936 5.24989 6.39783 5.24989 6C5.24989 5.60218 5.09186 5.22065 4.81055 4.93934C4.52925 4.65804 4.14772 4.5 3.74989 4.5C3.35207 4.5 2.97054 4.65804 2.68923 4.93934C2.40793 5.22065 2.24989 5.60218 2.24989 6C2.24989 6.39783 2.40793 6.77936 2.68923 7.06066C2.97054 7.34197 3.35207 7.5 3.74989 7.5Z" fill="white"/>
</svg>
