<svg width="157" height="40" viewBox="0 0 157 40" fill="none" xmlns="http://www.w3.org/2000/svg">
<path d="M34.9303 1.12441L20.2038 39H15.0366L0.310032 1.12441H5.65809L17.6202 33.6003L29.5822 1.12441H34.9303ZM43.7662 39H38.8832V11.588H43.7662V39ZM43.7662 6.39496H38.8832V1.12441H43.7662V6.39496ZM62.6265 39.6459C58.5961 39.6459 55.358 38.3885 52.9121 35.8738C50.4663 33.3419 49.2434 29.8196 49.2434 25.3069C49.2434 20.8287 50.4233 17.3236 52.783 14.7917C55.1599 12.2425 58.2602 10.9679 62.0839 10.9679C65.9938 10.9679 69.1113 12.2167 71.4366 14.7142C73.779 17.2116 74.9503 20.7426 74.9503 25.3069V26.4695H54.3073C54.514 29.6388 55.3838 31.9898 56.9167 33.5228C58.4669 35.0557 60.3701 35.8222 62.6265 35.8222C64.3317 35.8222 65.8646 35.3916 67.2253 34.5304C68.6032 33.6519 69.3266 32.4118 69.3955 30.81H74.4335C74.0546 33.6347 72.7714 35.8136 70.584 37.3465C68.4137 38.8794 65.7613 39.6459 62.6265 39.6459ZM69.8089 22.6458C69.4127 20.0105 68.5257 18.0384 67.1478 16.7294C65.7699 15.4203 64.0819 14.7658 62.0839 14.7658C60.1376 14.7658 58.4669 15.4203 57.0717 16.7294C55.6766 18.0212 54.7896 19.9933 54.4106 22.6458H69.8089ZM85.3105 39H80.4275V1.12441H85.3105V39ZM109.571 0.478513C114.875 0.478513 119.216 2.26981 122.592 5.8524C125.968 9.435 127.656 14.1716 127.656 20.0622C127.656 25.9528 125.968 30.6894 122.592 34.272C119.216 37.8546 114.875 39.6459 109.571 39.6459C104.248 39.6459 99.8906 37.8546 96.4975 34.272C93.1044 30.6722 91.4078 25.9356 91.4078 20.0622C91.4078 14.1716 93.1044 9.435 96.4975 5.8524C99.8906 2.26981 104.248 0.478513 109.571 0.478513ZM109.519 35.3571C113.308 35.3571 116.408 34.0137 118.82 31.3267C121.248 28.6398 122.463 24.8849 122.463 20.0622C122.463 15.2395 121.257 11.4847 118.846 8.79771C116.434 6.11076 113.36 4.76729 109.622 4.76729C105.816 4.76729 102.69 6.11076 100.244 8.79771C97.8151 11.4847 96.6008 15.2395 96.6008 20.0622C96.6008 24.8677 97.8151 28.6225 100.244 31.3267C102.672 34.0137 105.764 35.3571 109.519 35.3571ZM138.584 15.0759C141.013 12.3372 143.743 10.9679 146.774 10.9679C152.958 10.9679 156.049 14.3352 156.049 21.0698V39H151.166V21.2765C151.166 19.0374 150.762 17.4269 149.952 16.4452C149.16 15.4634 147.851 14.9725 146.025 14.9725C143.545 14.9725 141.065 16.4366 138.584 19.3646V39H133.701V11.588H138.584V15.0759Z" fill="black"/>
</svg>
