<svg width="28" height="28" viewBox="0 0 28 28" fill="none" xmlns="http://www.w3.org/2000/svg">
<path d="M24.5292 15.9949V17.1015C24.5292 17.4003 24.2968 17.6438 23.9869 17.6549H22.3712C21.7846 17.6549 21.2534 17.2233 21.2092 16.6478C21.176 16.3047 21.3088 15.9838 21.5301 15.7625C21.7293 15.5522 22.006 15.4415 22.3048 15.4415H23.9758C24.2968 15.4526 24.5292 15.6961 24.5292 15.9949Z" fill="white"/>
<path d="M20.7005 14.9436C20.1472 15.4858 19.8816 16.2937 20.1029 17.1348C20.3907 18.164 21.3977 18.8169 22.4601 18.8169H23.4229C24.0316 18.8169 24.5296 19.3149 24.5296 19.9236V20.1338C24.5296 22.4246 22.6593 24.2949 20.3685 24.2949H7.664C5.3732 24.2949 3.50293 22.4246 3.50293 20.1338V12.686C3.50293 11.3248 4.15586 10.1185 5.16293 9.36597C5.86013 8.83477 6.72333 8.5249 7.664 8.5249H20.3685C22.6593 8.5249 24.5296 10.3952 24.5296 12.686V13.1729C24.5296 13.7816 24.0316 14.2796 23.4229 14.2796H22.2941C21.6744 14.2796 21.11 14.523 20.7005 14.9436Z" fill="white"/>
<path d="M18.7191 6.23408C19.0179 6.53288 18.7634 6.99768 18.3429 6.99768L9.84368 6.98661C9.35675 6.98661 9.10221 6.38901 9.45635 6.04595L11.2491 4.24208C12.7653 2.73701 15.2221 2.73701 16.7382 4.24208L18.6749 6.20088C18.6859 6.21195 18.7081 6.22301 18.7191 6.23408Z" fill="white"/>
</svg>
