<svg width="28" height="27" viewBox="0 0 28 27" fill="none" xmlns="http://www.w3.org/2000/svg">
<path d="M24.9439 13.5V19.0333C24.9439 22.3533 22.7305 24.5667 19.4105 24.5667H8.34388C5.02388 24.5667 2.81055 22.3533 2.81055 19.0333V13.5C2.81055 10.4899 4.62548 8.38721 7.44748 8.03307C7.73521 7.98881 8.03401 7.96667 8.34388 7.96667H19.4105C19.6983 7.96667 19.9749 7.97773 20.2405 8.02199C23.0957 8.35399 24.9439 10.4677 24.9439 13.5Z" stroke="#9DB2CE" stroke-width="1.66" stroke-linecap="round" stroke-linejoin="round"/>
<path d="M20.2413 8.02201C19.9757 7.97775 19.699 7.9667 19.4113 7.9667H8.34464C8.03478 7.9667 7.73598 7.98883 7.44824 8.03309C7.60318 7.72323 7.82451 7.43549 8.09011 7.16989L11.6868 3.56215C13.2029 2.05708 15.6597 2.05708 17.1758 3.56215L19.1125 5.52097C19.8208 6.21817 20.197 7.10348 20.2413 8.02201Z" stroke="#9DB2CE" stroke-width="1.66" stroke-linecap="round" stroke-linejoin="round"/>
<path d="M24.9435 14.0533H21.6235C20.4062 14.0533 19.4102 15.0493 19.4102 16.2667C19.4102 17.484 20.4062 18.48 21.6235 18.48H24.9435" stroke="#9DB2CE" stroke-width="1.66" stroke-linecap="round" stroke-linejoin="round"/>
</svg>
