<svg width="170" height="147" viewBox="0 0 170 147" fill="none" xmlns="http://www.w3.org/2000/svg">
<path d="M153.622 26.3711L118.901 6.72356C116.959 5.62459 114.646 5.38671 112.521 6.06736L9.71062 38.9961L8.10985 39.8248L41.3509 35.4348L153.622 26.3711Z" fill="#595959"/>
<rect x="12.0073" y="40.4263" width="131.93" height="83.9553" rx="4" transform="rotate(-12 12.0073 40.4263)" fill="#363537"/>
<path d="M12.839 44.3389C12.3797 42.178 13.7591 40.0539 15.9199 39.5946L101.802 21.3398C104.218 20.8263 106.517 22.6032 106.63 25.0704L110.132 101.978C110.221 103.933 108.882 105.666 106.968 106.073L33.3752 121.715C31.2143 122.175 29.0903 120.795 28.631 118.634L12.839 44.3389Z" fill="#61FF98"/>
<path d="M3.74693 47.9439L16.5428 138.992C17.1578 143.367 21.2031 146.415 25.5784 145.8L161.164 126.745C165.54 126.13 168.588 122.085 167.973 117.709L155.177 26.6617C154.562 22.2865 150.517 19.2381 146.142 19.853L10.5557 38.9083C6.18041 39.5232 3.13203 43.5686 3.74693 47.9439Z" fill="#737373"/>
<path d="M133.727 68.8879L160.299 65.1535L163.011 84.4535L136.44 88.1879C136.167 88.2262 135.905 88.3203 135.671 88.4643L128.051 93.1463C127.032 93.7722 125.787 93.9096 124.656 93.5209L115.098 90.235C114.386 89.9903 113.872 89.3671 113.767 88.622L112.004 76.0776C111.909 75.4004 112.167 74.7214 112.687 74.2776L120.858 67.3082C121.871 66.4448 123.246 66.1412 124.528 66.4983L132.912 68.834C133.177 68.9079 133.455 68.9262 133.727 68.8879Z" fill="#595959"/>
</svg>
